<mxfile host="Electron" agent="Mozilla/5.0 (X11; Linux x86_64) AppleWebKit/537.36 (KHTML, like Gecko) draw.io/24.7.5 Chrome/126.0.6478.183 Electron/31.3.0 Safari/537.36" version="24.7.5">
  <diagram name="Page-1" id="vs_xRYN3PJedcXhgR3uC">
    <mxGraphModel dx="2074" dy="1222" grid="1" gridSize="10" guides="1" tooltips="1" connect="1" arrows="1" fold="1" page="1" pageScale="1" pageWidth="827" pageHeight="1169" background="none" math="0" shadow="0">
      <root>
        <mxCell id="8ObBogy_hKi-1fXvcZVX-0" />
        <mxCell id="8ObBogy_hKi-1fXvcZVX-1" parent="8ObBogy_hKi-1fXvcZVX-0" />
        <mxCell id="8ObBogy_hKi-1fXvcZVX-2" value="" style="shape=umlLifeline;perimeter=lifelinePerimeter;whiteSpace=wrap;html=1;container=1;dropTarget=0;collapsible=0;recursiveResize=0;outlineConnect=0;portConstraint=eastwest;newEdgeStyle={&quot;curved&quot;:0,&quot;rounded&quot;:0};participant=umlActor;" parent="8ObBogy_hKi-1fXvcZVX-1" vertex="1">
          <mxGeometry x="30" y="80" width="20" height="560" as="geometry" />
        </mxCell>
        <mxCell id="8ObBogy_hKi-1fXvcZVX-3" value="PaaS frontend" style="shape=umlLifeline;perimeter=lifelinePerimeter;whiteSpace=wrap;html=1;container=1;dropTarget=0;collapsible=0;recursiveResize=0;outlineConnect=0;portConstraint=eastwest;newEdgeStyle={&quot;curved&quot;:0,&quot;rounded&quot;:0};fontStyle=0" parent="8ObBogy_hKi-1fXvcZVX-1" vertex="1">
          <mxGeometry x="150" y="80" width="100" height="560" as="geometry" />
        </mxCell>
        <mxCell id="8ObBogy_hKi-1fXvcZVX-4" value="" style="html=1;points=[[0,0,0,0,5],[0,1,0,0,-5],[1,0,0,0,5],[1,1,0,0,-5]];perimeter=orthogonalPerimeter;outlineConnect=0;targetShapes=umlLifeline;portConstraint=eastwest;newEdgeStyle={&quot;curved&quot;:0,&quot;rounded&quot;:0};" parent="8ObBogy_hKi-1fXvcZVX-3" vertex="1">
          <mxGeometry x="45" y="60" width="10" height="450" as="geometry" />
        </mxCell>
        <mxCell id="8ObBogy_hKi-1fXvcZVX-5" value="" style="html=1;points=[[0,0,0,0,5],[0,1,0,0,-5],[1,0,0,0,5],[1,1,0,0,-5]];perimeter=orthogonalPerimeter;outlineConnect=0;targetShapes=umlLifeline;portConstraint=eastwest;newEdgeStyle={&quot;curved&quot;:0,&quot;rounded&quot;:0};" parent="8ObBogy_hKi-1fXvcZVX-3" vertex="1">
          <mxGeometry x="50" y="190" width="10" height="40" as="geometry" />
        </mxCell>
        <mxCell id="8ObBogy_hKi-1fXvcZVX-6" value="populate cells list" style="html=1;align=left;spacingLeft=2;endArrow=block;rounded=0;edgeStyle=orthogonalEdgeStyle;curved=0;rounded=0;" parent="8ObBogy_hKi-1fXvcZVX-3" edge="1">
          <mxGeometry relative="1" as="geometry">
            <mxPoint x="55" y="169.9999999999999" as="sourcePoint" />
            <Array as="points">
              <mxPoint x="80" y="170" />
              <mxPoint x="80" y="210" />
            </Array>
            <mxPoint x="60" y="209.9999999999999" as="targetPoint" />
          </mxGeometry>
        </mxCell>
        <mxCell id="8ObBogy_hKi-1fXvcZVX-12" value="catalogue" style="shape=umlLifeline;perimeter=lifelinePerimeter;whiteSpace=wrap;html=1;container=1;dropTarget=0;collapsible=0;recursiveResize=0;outlineConnect=0;portConstraint=eastwest;newEdgeStyle={&quot;curved&quot;:0,&quot;rounded&quot;:0};" parent="8ObBogy_hKi-1fXvcZVX-1" vertex="1">
          <mxGeometry x="350" y="80" width="100" height="560" as="geometry" />
        </mxCell>
        <mxCell id="8ObBogy_hKi-1fXvcZVX-13" value="" style="html=1;points=[[0,0,0,0,5],[0,1,0,0,-5],[1,0,0,0,5],[1,1,0,0,-5]];perimeter=orthogonalPerimeter;outlineConnect=0;targetShapes=umlLifeline;portConstraint=eastwest;newEdgeStyle={&quot;curved&quot;:0,&quot;rounded&quot;:0};" parent="8ObBogy_hKi-1fXvcZVX-12" vertex="1">
          <mxGeometry x="45" y="70" width="10" height="70" as="geometry" />
        </mxCell>
        <mxCell id="8ObBogy_hKi-1fXvcZVX-15" value="workflows backend" style="shape=umlLifeline;perimeter=lifelinePerimeter;whiteSpace=wrap;html=1;container=1;dropTarget=0;collapsible=0;recursiveResize=0;outlineConnect=0;portConstraint=eastwest;newEdgeStyle={&quot;curved&quot;:0,&quot;rounded&quot;:0};" parent="8ObBogy_hKi-1fXvcZVX-1" vertex="1">
          <mxGeometry x="470" y="80" width="100" height="560" as="geometry" />
        </mxCell>
        <mxCell id="8ObBogy_hKi-1fXvcZVX-16" value="" style="html=1;points=[[0,0,0,0,5],[0,1,0,0,-5],[1,0,0,0,5],[1,1,0,0,-5]];perimeter=orthogonalPerimeter;outlineConnect=0;targetShapes=umlLifeline;portConstraint=eastwest;newEdgeStyle={&quot;curved&quot;:0,&quot;rounded&quot;:0};" parent="8ObBogy_hKi-1fXvcZVX-15" vertex="1">
          <mxGeometry x="40" y="300" width="10" height="190" as="geometry" />
        </mxCell>
        <mxCell id="8ObBogy_hKi-1fXvcZVX-17" value="" style="html=1;points=[[0,0,0,0,5],[0,1,0,0,-5],[1,0,0,0,5],[1,1,0,0,-5]];perimeter=orthogonalPerimeter;outlineConnect=0;targetShapes=umlLifeline;portConstraint=eastwest;newEdgeStyle={&quot;curved&quot;:0,&quot;rounded&quot;:0};" parent="8ObBogy_hKi-1fXvcZVX-15" vertex="1">
          <mxGeometry x="45" y="330" width="10" height="40" as="geometry" />
        </mxCell>
        <mxCell id="8ObBogy_hKi-1fXvcZVX-18" value="get wf engine URL&lt;div&gt;from configuration&lt;/div&gt;" style="html=1;align=left;spacingLeft=2;endArrow=block;rounded=0;edgeStyle=orthogonalEdgeStyle;curved=0;rounded=0;" parent="8ObBogy_hKi-1fXvcZVX-15" source="8ObBogy_hKi-1fXvcZVX-16" target="8ObBogy_hKi-1fXvcZVX-17" edge="1">
          <mxGeometry relative="1" as="geometry">
            <mxPoint x="55" y="460" as="sourcePoint" />
            <Array as="points">
              <mxPoint x="85" y="310" />
              <mxPoint x="85" y="350" />
            </Array>
          </mxGeometry>
        </mxCell>
        <mxCell id="8ObBogy_hKi-1fXvcZVX-21" value="workflow engine&amp;nbsp;" style="shape=umlLifeline;perimeter=lifelinePerimeter;whiteSpace=wrap;html=1;container=1;dropTarget=0;collapsible=0;recursiveResize=0;outlineConnect=0;portConstraint=eastwest;newEdgeStyle={&quot;curved&quot;:0,&quot;rounded&quot;:0};rotation=0;" parent="8ObBogy_hKi-1fXvcZVX-1" vertex="1">
          <mxGeometry x="670" y="80" width="100" height="560" as="geometry" />
        </mxCell>
        <mxCell id="8ObBogy_hKi-1fXvcZVX-22" value="" style="html=1;points=[[0,0,0,0,5],[0,1,0,0,-5],[1,0,0,0,5],[1,1,0,0,-5]];perimeter=orthogonalPerimeter;outlineConnect=0;targetShapes=umlLifeline;portConstraint=eastwest;newEdgeStyle={&quot;curved&quot;:0,&quot;rounded&quot;:0};" parent="8ObBogy_hKi-1fXvcZVX-21" vertex="1">
          <mxGeometry x="45" y="415" width="10" height="50" as="geometry" />
        </mxCell>
        <mxCell id="8ObBogy_hKi-1fXvcZVX-23" value="open VL workflow list" style="html=1;verticalAlign=bottom;endArrow=block;curved=0;rounded=0;entryX=0;entryY=0;entryDx=0;entryDy=5;" parent="8ObBogy_hKi-1fXvcZVX-1" source="8ObBogy_hKi-1fXvcZVX-2" target="8ObBogy_hKi-1fXvcZVX-4" edge="1">
          <mxGeometry relative="1" as="geometry">
            <mxPoint x="110" y="175" as="sourcePoint" />
          </mxGeometry>
        </mxCell>
        <mxCell id="8ObBogy_hKi-1fXvcZVX-24" value="return" style="html=1;verticalAlign=bottom;endArrow=open;dashed=1;endSize=8;curved=0;rounded=0;exitX=0;exitY=1;exitDx=0;exitDy=-5;" parent="8ObBogy_hKi-1fXvcZVX-1" source="8ObBogy_hKi-1fXvcZVX-4" target="8ObBogy_hKi-1fXvcZVX-2" edge="1">
          <mxGeometry relative="1" as="geometry">
            <mxPoint x="110" y="245" as="targetPoint" />
          </mxGeometry>
        </mxCell>
        <mxCell id="8ObBogy_hKi-1fXvcZVX-25" value="GET /workflow_cells?page=" style="html=1;verticalAlign=bottom;endArrow=block;curved=0;rounded=0;entryX=0;entryY=0;entryDx=0;entryDy=5;" parent="8ObBogy_hKi-1fXvcZVX-1" source="8ObBogy_hKi-1fXvcZVX-4" target="8ObBogy_hKi-1fXvcZVX-13" edge="1">
          <mxGeometry relative="1" as="geometry">
            <mxPoint x="240" y="195" as="sourcePoint" />
          </mxGeometry>
        </mxCell>
        <mxCell id="8ObBogy_hKi-1fXvcZVX-26" value="return" style="html=1;verticalAlign=bottom;endArrow=open;dashed=1;endSize=8;curved=0;rounded=0;exitX=0;exitY=1;exitDx=0;exitDy=-5;" parent="8ObBogy_hKi-1fXvcZVX-1" source="8ObBogy_hKi-1fXvcZVX-13" target="8ObBogy_hKi-1fXvcZVX-4" edge="1">
          <mxGeometry relative="1" as="geometry">
            <mxPoint x="250" y="265" as="targetPoint" />
          </mxGeometry>
        </mxCell>
        <mxCell id="8ObBogy_hKi-1fXvcZVX-27" value="&lt;span style=&quot;text-align: left;&quot;&gt;{cells: [{…}, {…}]}&lt;/span&gt;" style="edgeLabel;html=1;align=center;verticalAlign=top;resizable=0;points=[];rotation=0;labelBackgroundColor=#FFF2CC;fontFamily=Lucida Console;" parent="8ObBogy_hKi-1fXvcZVX-26" vertex="1" connectable="0">
          <mxGeometry relative="1" as="geometry">
            <mxPoint as="offset" />
          </mxGeometry>
        </mxCell>
        <mxCell id="8ObBogy_hKi-1fXvcZVX-28" value="config:&amp;nbsp;&lt;span style=&quot;background-color: initial;&quot;&gt;list&lt;/span&gt;&lt;div&gt;&lt;span style=&quot;background-color: initial;&quot;&gt;of wf engines&lt;/span&gt;&lt;/div&gt;&lt;div&gt;&lt;span style=&quot;background-color: initial;&quot;&gt;for each VL&lt;/span&gt;&lt;/div&gt;" style="shape=note;whiteSpace=wrap;html=1;backgroundOutline=1;darkOpacity=0.05;align=left;fillColor=#fff2cc;strokeColor=#d6b656;" parent="8ObBogy_hKi-1fXvcZVX-1" vertex="1">
          <mxGeometry x="550" y="100" width="110" height="50" as="geometry" />
        </mxCell>
        <mxCell id="8ObBogy_hKi-1fXvcZVX-29" value="GET /status/&amp;lt;virtual_lab&amp;gt;[?workflow_url=&amp;lt;workflow_url&amp;gt;]&lt;div&gt;[?status=][?progress]&lt;/div&gt;" style="html=1;verticalAlign=bottom;endArrow=block;curved=0;rounded=0;entryX=0;entryY=0;entryDx=0;entryDy=5;align=center;startFill=1;anchorPointDirection=1;" parent="8ObBogy_hKi-1fXvcZVX-1" source="8ObBogy_hKi-1fXvcZVX-4" target="8ObBogy_hKi-1fXvcZVX-16" edge="1">
          <mxGeometry relative="1" as="geometry">
            <mxPoint x="205" y="385.0000000000002" as="sourcePoint" />
          </mxGeometry>
        </mxCell>
        <mxCell id="8ObBogy_hKi-1fXvcZVX-31" value="return" style="html=1;verticalAlign=bottom;endArrow=open;dashed=1;endSize=8;curved=0;rounded=0;exitX=0;exitY=1;exitDx=0;exitDy=-5;" parent="8ObBogy_hKi-1fXvcZVX-1" source="8ObBogy_hKi-1fXvcZVX-16" target="8ObBogy_hKi-1fXvcZVX-4" edge="1">
          <mxGeometry relative="1" as="geometry">
            <mxPoint x="205" y="564.9999999999998" as="targetPoint" />
          </mxGeometry>
        </mxCell>
        <mxCell id="8ObBogy_hKi-1fXvcZVX-32" value="{status: &amp;lt;status&amp;gt;, progress: &amp;lt;progress&amp;gt;}" style="edgeLabel;html=1;align=center;verticalAlign=top;resizable=0;points=[];rotation=0;labelBackgroundColor=#FFF2CC;fontFamily=Lucida Console;" parent="8ObBogy_hKi-1fXvcZVX-31" vertex="1" connectable="0">
          <mxGeometry relative="1" as="geometry">
            <mxPoint as="offset" />
          </mxGeometry>
        </mxCell>
        <mxCell id="8ObBogy_hKi-1fXvcZVX-33" value="get wf or wfs status with&amp;nbsp;&lt;div&gt;user credential jwt from header&lt;div&gt;or token&lt;/div&gt;&lt;/div&gt;" style="html=1;verticalAlign=bottom;endArrow=block;curved=0;rounded=0;entryX=0;entryY=0;entryDx=0;entryDy=5;" parent="8ObBogy_hKi-1fXvcZVX-1" source="8ObBogy_hKi-1fXvcZVX-16" target="8ObBogy_hKi-1fXvcZVX-22" edge="1">
          <mxGeometry relative="1" as="geometry">
            <mxPoint x="770" y="645" as="sourcePoint" />
          </mxGeometry>
        </mxCell>
        <mxCell id="8ObBogy_hKi-1fXvcZVX-35" value="return" style="html=1;verticalAlign=bottom;endArrow=open;dashed=1;endSize=8;curved=0;rounded=0;exitX=0;exitY=1;exitDx=0;exitDy=-5;" parent="8ObBogy_hKi-1fXvcZVX-1" source="8ObBogy_hKi-1fXvcZVX-22" target="8ObBogy_hKi-1fXvcZVX-16" edge="1">
          <mxGeometry relative="1" as="geometry">
            <mxPoint x="770" y="715" as="targetPoint" />
          </mxGeometry>
        </mxCell>
        <mxCell id="8ObBogy_hKi-1fXvcZVX-36" value="&amp;lt;stage&amp;gt;, &amp;lt;progress&amp;gt;" style="edgeLabel;html=1;align=center;verticalAlign=top;resizable=0;points=[];rotation=0;labelBorderColor=none;labelBackgroundColor=#FFF2CC;fontFamily=Lucida Console;" parent="8ObBogy_hKi-1fXvcZVX-35" vertex="1" connectable="0">
          <mxGeometry relative="1" as="geometry">
            <mxPoint as="offset" />
          </mxGeometry>
        </mxCell>
        <mxCell id="8ObBogy_hKi-1fXvcZVX-41" value="List VL workflows" style="text;strokeColor=none;align=center;fillColor=none;html=1;verticalAlign=middle;whiteSpace=wrap;rounded=0;fontSize=18;" parent="8ObBogy_hKi-1fXvcZVX-1" vertex="1">
          <mxGeometry x="40" y="20" width="740" height="30" as="geometry" />
        </mxCell>
      </root>
    </mxGraphModel>
  </diagram>
</mxfile>
